# xmcd CD database file
#
# Track frame offsets:
#	150
#	25397
#	38625
#	52630
#	62212
#	77885
#	94097
#	110260
#	130900
#	143970
#	157472
#	176050
#	198695
#	211105
#	221642
#	237752
#	250997
#	259777
#	279105
#	291022
#	305495
#
# Disc length: 4208 seconds
#
# Revision: 0
# Processed by: cddbd v1.4PL0 Copyright (c) Steve Scherf et al.
# Submitted via: CDex 1.50beta9
#
DISCID=36106e15
DTITLE=CURTIS MAGEE - THE FIELDS OF ATHENRY 25 FAVOURITE REQUESTS
DYEAR=1900
DGENRE=Country
TTITLE0=MEDLEY - FOOL ENOUGH TO NGIVE IT ONE MORE TRY - A WORLD OF OUR OWN - PRECIOUS MEMORIES
TTITLE1=SECOND THOUGHTS AGAIN
TTITLE2=THE LIGTS OF HOME
TTITLE3=WALK RIGHT BACK
TTITLE4=YOU'RE MY FOREVER FRIEND
TTITLE5=SONNY'S DREAM
TTITLE6=TAKE ME TO THE ISLAND
TTITLE7=THE GOLD AND SILVER DAYS
TTITLE8=WHEN I GROW TOO OLD TO DREAM
TTITLE9=YOU ARE MY SUNSHINE
TTITLE10=DOT'T CLLOSE YOUR EYES
TTITLE11=MEDLEY - TAKE THESE CHAINS FROM MY HEART - WILD SIDE OF LIFE - BLUE EYES CRYING IN THE RAIN
TTITLE12=GREEN FIELDS OF IRELAND
TTITLE13=TOM DOOLEY
TTITLE14=FOR EVER AND EVER AMEN
TTITLE15=VILLAGE IN COUNTY TYRONE
TTITLE16=BARNEY BRANNIGAN
TTITLE17=THE FIELDS OF ATHENRY
TTITLE18=I DON'T CARE
TTITLE19=FOORTY SHADES OF GREEN
TTITLE20=IRISH CD
EXTD=
EXTT0=
EXTT1=
EXTT2=
EXTT3=
EXTT4=
EXTT5=
EXTT6=
EXTT7=
EXTT8=
EXTT9=
EXTT10=
EXTT11=
EXTT12=
EXTT13=
EXTT14=
EXTT15=
EXTT16=
EXTT17=
EXTT18=
EXTT19=
EXTT20=
PLAYORDER=
